<svg xmlns="http://www.w3.org/2000/svg" width="18.098" height="11.644" viewBox="0 0 18.098 11.644">
  <g id="目のアイコン8" transform="translate(0 -91.285)">
    <path id="Path_1089" data-name="Path 1089" d="M18.1,99.361a12.135,12.135,0,0,0-3.273-3.519l.9-1.563a.789.789,0,0,0-.289-1.078l-.058-.033a.789.789,0,0,0-1.078.289l-.884,1.531c-.13-.065-.263-.13-.4-.191a9.6,9.6,0,0,0-3.148-.816V92.074a.789.789,0,0,0-.789-.789H9.016a.79.79,0,0,0-.79.789v1.907a9.61,9.61,0,0,0-3.148.816c-.136.062-.265.129-.4.2L3.8,93.457a.789.789,0,0,0-1.078-.289L2.66,93.2a.789.789,0,0,0-.289,1.078l.9,1.563a12.254,12.254,0,0,0-1.99,1.791A10.807,10.807,0,0,0,0,99.361l1.037.583.483.274h0a10.291,10.291,0,0,1,2-2.344,9.2,9.2,0,0,1,2.343-1.512,7.914,7.914,0,0,1,6.442.029,9.768,9.768,0,0,1,3.21,2.408,10.54,10.54,0,0,1,.812,1.029c.089.129.155.232.2.3l.045.075.009.016v0l.343-.2-.344.193Z" fill="#404145"/>
    <path id="Path_1090" data-name="Path 1090" d="M172.664,247.936a3.054,3.054,0,1,0,3.054,3.054A3.053,3.053,0,0,0,172.664,247.936Z" transform="translate(-163.616 -151.114)" fill="#404145"/>
  </g>
</svg>
