<svg xmlns="http://www.w3.org/2000/svg" width="16.4" height="21.23" viewBox="0 0 16.4 21.23">
  <g id="Group_3592" data-name="Group 3592" transform="translate(-26.996 -392.381)">
    <path id="Path_1048" data-name="Path 1048" d="M74.441,3.646a2.053,2.053,0,0,0-1.892-1.254H70.78V2.087H68.217a1.833,1.833,0,1,0-3.629,0H62.025v.305H60.257A2.053,2.053,0,0,0,58.2,4.446V19.172a2.053,2.053,0,0,0,2.054,2.053H72.549A2.053,2.053,0,0,0,74.6,19.172V4.446a2.038,2.038,0,0,0-.159-.8ZM66.4,1.152a.679.679,0,0,1,.63.935H65.77a.668.668,0,0,1-.051-.255.681.681,0,0,1,.681-.68Zm6.978,18.02a.819.819,0,0,1-.065.323.839.839,0,0,1-.3.367.825.825,0,0,1-.465.141H60.257a.832.832,0,0,1-.832-.832V4.446a.822.822,0,0,1,.065-.324.832.832,0,0,1,.767-.509h1.768v.255a.865.865,0,0,0,.866.865h7.024a.865.865,0,0,0,.865-.865V3.614h1.768a.822.822,0,0,1,.324.065.834.834,0,0,1,.367.3.82.82,0,0,1,.142.465Z" transform="translate(-31.203 392.387)" fill="#fff"/>
    <rect id="Rectangle_2095" data-name="Rectangle 2095" width="1.311" height="1.311" transform="translate(31.061 399.461)" fill="#fff"/>
    <rect id="Rectangle_2096" data-name="Rectangle 2096" width="5.404" height="1.311" transform="translate(33.936 399.461)" fill="#fff"/>
    <rect id="Rectangle_2097" data-name="Rectangle 2097" width="1.311" height="1.311" transform="translate(31.061 403.336)" fill="#fff"/>
    <rect id="Rectangle_2098" data-name="Rectangle 2098" width="5.404" height="1.311" transform="translate(33.936 403.336)" fill="#fff"/>
    <rect id="Rectangle_2099" data-name="Rectangle 2099" width="1.311" height="1.311" transform="translate(31.061 407.211)" fill="#fff"/>
    <rect id="Rectangle_2100" data-name="Rectangle 2100" width="5.404" height="1.311" transform="translate(33.936 407.211)" fill="#fff"/>
  </g>
</svg>
