<svg xmlns="http://www.w3.org/2000/svg" width="17.178" height="17.178" viewBox="0 0 17.178 17.178">
  <g id="Group_3594" data-name="Group 3594" transform="translate(17487.871 23065.314)">
    <path id="Path_1052" data-name="Path 1052" d="M181.893,165.329h-2.084l-.224.348v.834h2.308V167.7h-2.308v1.788h-1.433V167.7h-2.308v-1.185h2.308v-.833l-.224-.349h-2.084v-1.012h1.433l-1.218-1.9h1.215l1.6,2.482,1.6-2.482h1.215l-1.217,1.9H181.9Z" transform="translate(-17658.152 -23222.68)" fill="#fff"/>
    <path id="Path_1053" data-name="Path 1053" d="M8.589,2.147A6.442,6.442,0,1,1,2.147,8.589,6.442,6.442,0,0,1,8.589,2.147M8.589,0a8.589,8.589,0,1,0,8.589,8.589A8.589,8.589,0,0,0,8.589,0Z" transform="translate(-17487.871 -23065.314)" fill="#fff"/>
  </g>
</svg>
