<svg xmlns="http://www.w3.org/2000/svg" width="15.228" height="13.571" viewBox="0 0 15.228 13.571">
  <g id="ハートのマーク" transform="translate(1 1.001)">
    <path id="Path_1027" data-name="Path 1027" d="M9.835,32.171a3.2,3.2,0,0,0-3.22,2.761,3.2,3.2,0,0,0-3.22-2.761C1.536,32.136,0,33.565,0,36.173c0,3.348,3.787,4.9,6.377,7.4.09.087.069.085.069.085a.217.217,0,0,0,.168.083h0a.217.217,0,0,0,.168-.083s-.021,0,.069-.085c2.59-2.5,6.377-4.048,6.377-7.4C13.229,33.565,11.692,32.136,9.835,32.171Z" transform="translate(0 -32.171)" fill="none" stroke="#fff" stroke-width="2"/>
  </g>
</svg>
