<svg xmlns="http://www.w3.org/2000/svg" width="23.959" height="22.888" viewBox="0 0 23.959 22.888">
  <g id="Group_3596" data-name="Group 3596" transform="translate(-25.219 -1292.803)">
    <path id="Path_1044" data-name="Path 1044" d="M257.1,60.062v.008h3.894v5.164h1.688V58.389h0v-.007H257.1v1.68Z" transform="translate(-219.852 1236.617)" fill="#404145"/>
    <path id="Path_1045" data-name="Path 1045" d="M262.683,307.2v-.008h-1.688v5.164H257.1v1.68h0v.008h5.582V307.2Z" transform="translate(-219.852 999.453)" fill="#404145"/>
    <path id="Path_1046" data-name="Path 1046" d="M324.708,188.805l-3.961-3a.276.276,0,0,0-.171-.058.288.288,0,0,0-.289.289v1.278a.29.29,0,0,1-.289.289H315.92a.286.286,0,0,0-.287.287v2.288a.286.286,0,0,0,.287.287H320a.29.29,0,0,1,.289.289v1.278a.288.288,0,0,0,.289.289.276.276,0,0,0,.171-.058l3.961-3A.29.29,0,0,0,324.708,188.805Z" transform="translate(-275.645 1115.211)" fill="#404145"/>
    <path id="Path_1047" data-name="Path 1047" d="M9.577,11.444a1.38,1.38,0,0,0-.35.051L1.794,13.64l-.482.14-.569.164A1.029,1.029,0,0,0,0,14.935V30.841a1.029,1.029,0,0,0,.743.991L1.312,32l.482.14,7.433,2.146a1.284,1.284,0,0,0,.35.051,1.253,1.253,0,0,0,1.249-1.254V12.7A1.253,1.253,0,0,0,9.577,11.444ZM7.464,23.887v-2a.235.235,0,0,1,.236-.236h.784a.233.233,0,0,1,.234.236v2a.232.232,0,0,1-.234.234H7.7A.235.235,0,0,1,7.464,23.887Z" transform="translate(25.219 1281.359)" fill="#404145"/>
  </g>
</svg>
