<svg xmlns="http://www.w3.org/2000/svg" width="16.604" height="14.706" viewBox="0 0 16.604 14.706">
  <g id="ハートのマーク" transform="translate(0.75 0.75)">
    <path id="Path_1027" data-name="Path 1027" d="M11.228,32.171a3.656,3.656,0,0,0-3.676,3.153,3.656,3.656,0,0,0-3.676-3.153C1.754,32.131,0,33.762,0,36.74c0,3.823,4.324,5.589,7.281,8.444.1.1.079.1.079.1a.248.248,0,0,0,.192.095h0a.248.248,0,0,0,.192-.095s-.024,0,.079-.1c2.957-2.856,7.281-4.621,7.281-8.444C15.1,33.762,13.349,32.131,11.228,32.171Z" transform="translate(0 -32.171)" fill="#fff" stroke="#404145" stroke-width="1.5"/>
  </g>
</svg>
