<svg xmlns="http://www.w3.org/2000/svg" width="15.908" height="15.908" viewBox="0 0 15.908 15.908">
  <g id="Group_3593" data-name="Group 3593" transform="translate(17587.324 23064.908)">
    <path id="Path_1061" data-name="Path 1061" d="M97.166,277.408h2.505a.307.307,0,0,0,.318-.3v-3.72a.307.307,0,0,0-.318-.3H97.166a.307.307,0,0,0-.318.3v3.72A.307.307,0,0,0,97.166,277.408Z" transform="translate(-17681.162 -23329.52)" fill="#404145"/>
    <path id="Path_1062" data-name="Path 1062" d="M244.178,236.082a.307.307,0,0,0-.318.3v4.87a.307.307,0,0,0,.318.3h2.505a.307.307,0,0,0,.318-.3v-4.87a.307.307,0,0,0-.318-.3Z" transform="translate(-17823.605 -23293.656)" fill="#404145"/>
    <path id="Path_1063" data-name="Path 1063" d="M390.873,169.225v6.956a.307.307,0,0,0,.318.3H393.7a.307.307,0,0,0,.318-.3v-6.956a.307.307,0,0,0-.318-.3h-2.505A.307.307,0,0,0,390.873,169.225Z" transform="translate(-17966.051 -23228.59)" fill="#404145"/>
    <path id="Path_1064" data-name="Path 1064" d="M15.393,14.14H1.768V0H0V15.908H15.908V14.14Z" transform="translate(-17587.324 -23064.908)" fill="#404145"/>
    <path id="Path_1065" data-name="Path 1065" d="M100.806,3.7l2.582,2.568L107.1,2.575l.847.843L108.518,0l-3.435.57.847.843-2.543,2.53-2.582-2.568L96.848,5.311l1.168,1.162Z" transform="translate(-17681.162 -23064.908)" fill="#404145"/>
  </g>
</svg>
