<svg xmlns="http://www.w3.org/2000/svg" width="23.211" height="16.053" viewBox="0 0 23.211 16.053">
  <g id="フリーの握手アイコン" transform="translate(0 -78.953)">
    <path id="Path_1059" data-name="Path 1059" d="M17.509,78.954l-2.26,2.26.21.218c-.15.121-.3.239-.448.344a3.532,3.532,0,0,1-.62.369.394.394,0,0,1-.135.016,4.912,4.912,0,0,1-.628-.074A6.414,6.414,0,0,0,12.656,82a3.915,3.915,0,0,0-1.052.141A3.94,3.94,0,0,0,10.555,82a6.316,6.316,0,0,0-.971.087,4.9,4.9,0,0,1-.628.074.372.372,0,0,1-.134-.016,3.676,3.676,0,0,1-.669-.4c-.132-.1-.267-.2-.4-.31l.21-.217L5.7,78.954,0,84.859l2.26,2.26.662-.685,1.46,1.275a3.3,3.3,0,0,0,.207.694c.058.139.121.273.186.4A1.485,1.485,0,0,0,5.78,91.037a1.489,1.489,0,0,0,1.491,1.475c.019,0,.039,0,.058,0a1.487,1.487,0,0,0,1.48,1.316c.049,0,.1-.005.148-.01a1.357,1.357,0,0,0,2.063.988l.678-.422a2.723,2.723,0,0,0,.421.224,2.267,2.267,0,0,0,.878.187,1.725,1.725,0,0,0,1-.307,1.849,1.849,0,0,0,.508-.555c.021,0,.039,0,.061,0a1.518,1.518,0,0,0,.447-.069,2.286,2.286,0,0,0,.469-.21,1.628,1.628,0,0,0,.794-.989,1.334,1.334,0,0,0,.265-.114,1.52,1.52,0,0,0,.617-.7,1.968,1.968,0,0,0,.175-.809c0-.026,0-.052,0-.077a1.873,1.873,0,0,0,.523-.324,1.69,1.69,0,0,0,.38-.471,1.28,1.28,0,0,0,.16-.606,1.07,1.07,0,0,0-.095-.443,1.087,1.087,0,0,0-.078-.13,5.331,5.331,0,0,0,.327-.687,3.115,3.115,0,0,0,.167-.6l1.523-1.329.714.739,2.26-2.26ZM6.29,89.9l-.026.017a.406.406,0,0,1-.429-.689l.9-.556a.4.4,0,0,1,.558.13l.461-.286-.461.287a.4.4,0,0,1,.061.212.41.41,0,0,1-.1.261l-.769.478A1.507,1.507,0,0,0,6.29,89.9Zm1.2,1.464a.4.4,0,0,1-.213.061.4.4,0,0,1-.31-.664l.769-.479a1.483,1.483,0,0,0,.193-.146l.028-.017a.4.4,0,0,1,.213-.061.405.405,0,0,1,.215.75Zm2.432.756-.894.556a.4.4,0,0,1-.213.061.406.406,0,0,1-.215-.75l.9-.556a.4.4,0,0,1,.213-.061.405.405,0,0,1,.215.75Zm1.386.907a.265.265,0,0,1,.041.142.272.272,0,0,1-.129.232l-.768.477a.261.261,0,0,1-.143.041.271.271,0,0,1-.145-.5h0l.769-.478a.263.263,0,0,1,.143-.041.27.27,0,0,1,.231.128l.461-.286Zm5.971-3.371a.7.7,0,0,1-.243.245.719.719,0,0,1-.373.111.517.517,0,0,0-.131.019,1.5,1.5,0,0,1-.231-.071,2.425,2.425,0,0,1-.613-.368c-.078-.063-.14-.12-.181-.159l-.046-.045-.01-.01h0a.407.407,0,0,0-.6.551,3.48,3.48,0,0,0,.553.467,3.02,3.02,0,0,0,.6.323c.053.021.109.041.166.058a.529.529,0,0,0,.06.1h0a.444.444,0,0,1,.023.162.85.85,0,0,1-.13.455A.362.362,0,0,1,16,91.61a.289.289,0,0,1-.151.036h-.026c-.016,0-.03,0-.045,0h0a1.673,1.673,0,0,1-.924-.316,2.322,2.322,0,0,1-.283-.226c-.032-.03-.057-.055-.072-.071l-.016-.017,0,0h0a.407.407,0,0,0-.614.534h0a2.908,2.908,0,0,0,.531.457,2.715,2.715,0,0,0,.83.383c0,.01-.006.019-.01.029a.59.59,0,0,1-.271.293,1.243,1.243,0,0,1-.249.115.408.408,0,0,1-.129.021,1.4,1.4,0,0,1-.264-.038.477.477,0,0,0-.072-.008l-.027-.012a2.341,2.341,0,0,1-.421-.276c-.061-.048-.112-.093-.148-.124l-.04-.036-.009-.009h0a.407.407,0,1,0-.563.589,4.252,4.252,0,0,0,.42.345c.043.03.09.061.137.091a.782.782,0,0,1-.2.227A.639.639,0,0,1,13,93.7a1.191,1.191,0,0,1-.456-.1,1.618,1.618,0,0,1-.157-.083,1.353,1.353,0,0,0-1.191-1.7c0-.015,0-.029,0-.045a1.49,1.49,0,0,0-.224-.786h0A1.49,1.49,0,0,0,9.7,90.285c-.019,0-.039,0-.058,0a1.488,1.488,0,0,0-.213-.612h0a1.485,1.485,0,0,0-1-.677,1.488,1.488,0,0,0-.224-.771h0a1.491,1.491,0,0,0-2.054-.48l-.523.325c-.013-.029-.028-.057-.04-.086a1.87,1.87,0,0,1-.154-.581l-.012-.229-1.75-1.527,3.317-3.436c.17.139.344.277.522.406a4.645,4.645,0,0,0,.888.527,1.422,1.422,0,0,0,.551.1,5.493,5.493,0,0,0,.79-.087l.052-.007a8.719,8.719,0,0,0-.943.958c-.224.264-.414.512-.564.715s-.262.364-.313.428a1.786,1.786,0,0,0-.355,1.091,1.682,1.682,0,0,0,.343,1.046,1.363,1.363,0,0,0,.482.385,1.505,1.505,0,0,0,.651.142,2.373,2.373,0,0,0,.912-.205,16.909,16.909,0,0,1,2.822-.884c.39-.087.716-.147.944-.185l.114-.019L17.3,89.568h0v0A.225.225,0,0,1,17.275,89.657Zm.395-2.478-.012.229a1.743,1.743,0,0,1-.126.508c-.038.1-.084.2-.133.3l-2.988-2.576a.545.545,0,0,0-.423-.128,18.868,18.868,0,0,0-4.4,1.2,1.282,1.282,0,0,1-.489.119.407.407,0,0,1-.183-.035.3.3,0,0,1-.141-.146.688.688,0,0,1-.066-.306.717.717,0,0,1,.126-.424c.084-.109.188-.258.33-.45A10.735,10.735,0,0,1,10,84.455a5.5,5.5,0,0,1,1.154-.954,2.822,2.822,0,0,1,1.5-.415,5.348,5.348,0,0,1,.81.074,5.5,5.5,0,0,0,.79.087,1.429,1.429,0,0,0,.549-.1h0a4.644,4.644,0,0,0,.888-.527c.177-.128.352-.267.521-.405L19.481,85.6Z" transform="translate(0 0)" fill="#404145"/>
  </g>
</svg>
