<svg xmlns="http://www.w3.org/2000/svg" width="20.23" height="13.98" viewBox="0 0 20.23 13.98">
  <g id="免許証のフリーイラスト2" transform="translate(0 -79.083)">
    <path id="Path_1073" data-name="Path 1073" d="M20.046,80.511a2.338,2.338,0,0,0-2.155-1.428H2.339A2.338,2.338,0,0,0,0,81.422v9.3a2.339,2.339,0,0,0,2.339,2.339H17.892a2.339,2.339,0,0,0,2.339-2.339v-9.3A2.324,2.324,0,0,0,20.046,80.511ZM19.11,90.725a1.218,1.218,0,0,1-1.218,1.218H2.339a1.217,1.217,0,0,1-1.218-1.218v-9.3A1.217,1.217,0,0,1,2.339,80.2H17.892a1.217,1.217,0,0,1,1.218,1.218v9.3Z" transform="translate(0 0)" fill="#404145"/>
    <path id="Path_1074" data-name="Path 1074" d="M85.9,174.844a1.777,1.777,0,1,0-1.776-1.776A1.777,1.777,0,0,0,85.9,174.844Z" transform="translate(-80.796 -88.565)" fill="#404145"/>
    <path id="Path_1075" data-name="Path 1075" d="M74.792,267.229a.349.349,0,0,0-.261-.019,2.36,2.36,0,0,1-2.486,0,.35.35,0,0,0-.261.019,3.263,3.263,0,0,0-.771,1.439c-.2,1.17,1.055,1.592,2.275,1.592s2.47-.423,2.275-1.592A3.261,3.261,0,0,0,74.792,267.229Z" transform="translate(-68.188 -180.678)" fill="#404145"/>
    <rect id="Rectangle_2111" data-name="Rectangle 2111" width="7.986" height="0.889" transform="translate(9.216 83.094)" fill="#404145"/>
    <rect id="Rectangle_2112" data-name="Rectangle 2112" width="7.986" height="0.889" transform="translate(9.216 85.603)" fill="#404145"/>
    <rect id="Rectangle_2113" data-name="Rectangle 2113" width="4.955" height="0.889" transform="translate(9.216 88.112)" fill="#404145"/>
  </g>
</svg>
