<svg id="ブラウザ_広告_のアイコン" data-name="ブラウザ（広告）のアイコン" xmlns="http://www.w3.org/2000/svg" width="20.975" height="19.818" viewBox="0 0 20.975 19.818">
  <path id="Path_1181" data-name="Path 1181" d="M20.975,33.264V14.119H0V33.264a.677.677,0,0,0,.68.674H20.3A.675.675,0,0,0,20.975,33.264ZM1.633,16.127a.451.451,0,1,1,.451.451A.451.451,0,0,1,1.633,16.127Zm1.669,0a.45.45,0,1,1,.448.451A.45.45,0,0,1,3.3,16.127Zm2.307.312V15.8a.213.213,0,0,1,.213-.213H18.674a.216.216,0,0,1,.216.213v.636a.216.216,0,0,1-.216.213H5.822A.213.213,0,0,1,5.609,16.439ZM.636,33.264V17.85h19.7V33.264L20.3,33.3H.68l-.032-.013Z" transform="translate(0 -14.119)" fill="#404145"/>
  <path id="Path_1182" data-name="Path 1182" d="M63.331,269.5H57.019v.947h6.312Z" transform="translate(-54.683 -259.036)" fill="#404145"/>
  <rect id="Rectangle_2269" data-name="Rectangle 2269" width="7.935" height="0.947" transform="translate(2.336 5.737)" fill="#404145"/>
  <rect id="Rectangle_2270" data-name="Rectangle 2270" width="7.935" height="0.944" transform="translate(2.336 8.101)" fill="#404145"/>
  <rect id="Rectangle_2271" data-name="Rectangle 2271" width="7.935" height="0.947" transform="translate(2.336 12.827)" fill="#404145"/>
  <rect id="Rectangle_2272" data-name="Rectangle 2272" width="6.312" height="0.944" transform="translate(2.336 15.191)" fill="#404145"/>
  <path id="Path_1183" data-name="Path 1183" d="M344.412,269.113l0,.008,0-.01-.269.779-.09.254h0l0,.007h.709l-.194-.577Z" transform="translate(-329.952 -258.665)" fill="#404145"/>
  <path id="Path_1184" data-name="Path 1184" d="M402.1,278.283a.273.273,0,0,0-.108-.124.316.316,0,0,0-.184-.048.327.327,0,0,0-.188.048.267.267,0,0,0-.1.124.561.561,0,0,0-.048.191,1.835,1.835,0,0,0-.013.235,1.765,1.765,0,0,0,.013.235.56.56,0,0,0,.048.191.284.284,0,0,0,.1.13.356.356,0,0,0,.188.044.344.344,0,0,0,.184-.044.29.29,0,0,0,.108-.13.554.554,0,0,0,.051-.191,1.771,1.771,0,0,0,.013-.235,1.835,1.835,0,0,0-.013-.235A.556.556,0,0,0,402.1,278.283Z" transform="translate(-385.007 -267.296)" fill="#404145"/>
  <path id="Path_1185" data-name="Path 1185" d="M301.494,151.662h-6.709V162.48h6.709Zm-1.847,6.8a.774.774,0,0,1-.289.048.848.848,0,0,1-.289-.048.566.566,0,0,1-.219-.14.735.735,0,0,1-.086-.116.567.567,0,0,1-.032-.059.852.852,0,0,1-.064-.21,1.371,1.371,0,0,1-.029-.238c0-.083-.006-.169-.006-.257s0-.175.006-.257a1.375,1.375,0,0,1,.029-.235.847.847,0,0,1,.064-.21.767.767,0,0,1,.075-.124.534.534,0,0,1,.042-.051.566.566,0,0,1,.219-.14.816.816,0,0,1,.286-.048.776.776,0,0,1,.283.044.6.6,0,0,1,.174.116.475.475,0,0,1,.045.046v-.006l.007.006v-.95h.521v2.854h-.509v-.111l0-.082,0,0v-.009A.7.7,0,0,1,299.647,158.46Zm-1.818.025-.169-.505h-1.014l-.172.505h-.437l-.144,0,1.035-2.852h.438l.776,2.131.261.723Z" transform="translate(-282.708 -146.027)" fill="#404145"/>
</svg>
