<svg xmlns="http://www.w3.org/2000/svg" width="20.07" height="18.349" viewBox="0 0 20.07 18.349">
  <g id="ショップ_ストアの無料アイコン素材_4" data-name="ショップ・ストアの無料アイコン素材 4" transform="translate(0 -7.402)">
    <path id="Path_1175" data-name="Path 1175" d="M54.3,122.427h0v-.007H52.9v-6.484a1.854,1.854,0,0,0,1.227-1.68v-3.008l-.1-.2-1.893-4.023a.906.906,0,0,0-.82-.52H37.208a.906.906,0,0,0-.82.52l-1.893,4.023-.1.2v3.008a1.854,1.854,0,0,0,1.227,1.68v6.484h-1.4v1.9a.532.532,0,0,0,.532.532H53.768a.532.532,0,0,0,.532-.532v-1.889Zm-15.095-6.284a2.631,2.631,0,0,0,1.265-.309,2.746,2.746,0,0,0,2.53,0,2.746,2.746,0,0,0,2.53,0,2.747,2.747,0,0,0,2.53,0,2.746,2.746,0,0,0,2.53,0,2.168,2.168,0,0,0,.291.134v6.32H37.65v-6.32a2.163,2.163,0,0,0,.291-.134A2.629,2.629,0,0,0,39.205,116.144Zm6.325-2.623v.736a.648.648,0,0,1-.063.276.013.013,0,0,0-.005.01.75.75,0,0,1-.043.073.739.739,0,0,1-.056.076c-.015.018-.033.038-.048.053a.591.591,0,0,1-.071.066l-.045.038c-.036.025-.071.048-.109.071s-.048.028-.073.04-.046.023-.068.033a1.368,1.368,0,0,1-.18.066.46.46,0,0,1-.055.015.728.728,0,0,1-.071.018c-.033.008-.066.013-.1.018a1.708,1.708,0,0,1-.556,0c-.033,0-.066-.01-.1-.018s-.048-.01-.071-.018a.46.46,0,0,1-.056-.015,1.357,1.357,0,0,1-.18-.066c-.023-.01-.046-.02-.068-.033s-.048-.025-.073-.04-.073-.046-.109-.071l-.046-.038a.587.587,0,0,1-.071-.066c-.015-.015-.033-.035-.048-.053a.73.73,0,0,1-.055-.076.712.712,0,0,1-.043-.073.013.013,0,0,0,0-.01.647.647,0,0,1-.063-.276v-2.78l.266-3.964h2l.265,3.964v2.044Zm5.06,0v.736a.5.5,0,0,1-.008.089.508.508,0,0,1-.018.086c-.008.023-.015.046-.025.068a.179.179,0,0,1-.013.033.882.882,0,0,1-.256.306c-.038.028-.078.056-.121.081s-.066.034-.1.051-.076.034-.115.05a1.594,1.594,0,0,1-.233.07c-.039.009-.079.015-.12.021s-.084.013-.128.016-.086.005-.129.005-.086,0-.129-.005-.09-.01-.135-.017-.073-.012-.109-.019a1.585,1.585,0,0,1-.24-.072c-.038-.015-.075-.03-.11-.048s-.07-.033-.1-.052-.083-.053-.121-.081a.881.881,0,0,1-.255-.306.168.168,0,0,1-.013-.033c-.01-.023-.018-.046-.025-.068a.51.51,0,0,1-.018-.086.493.493,0,0,1-.008-.089v-2.78l-.8-3.964h2l1.331,3.964v2.044Zm-9.32-6.007-.8,3.963v2.78a.515.515,0,0,1-.008.089.478.478,0,0,1-.018.086c-.008.023-.015.046-.025.068a.179.179,0,0,1-.013.033.113.113,0,0,0-.013.025.452.452,0,0,1-.035.058.972.972,0,0,1-.235.243.756.756,0,0,1-.094.061c-.025.015-.048.028-.073.04s-.046.023-.068.033a1.384,1.384,0,0,1-.18.066.225.225,0,0,1-.056.015,1.258,1.258,0,0,1-.17.035c-.03.005-.063.01-.094.013a1.705,1.705,0,0,1-.369,0c-.03,0-.063-.008-.093-.013a1.256,1.256,0,0,1-.17-.035.463.463,0,0,1-.056-.015,1.363,1.363,0,0,1-.18-.066c-.023-.01-.046-.02-.068-.033s-.048-.025-.073-.04a.754.754,0,0,1-.093-.061.969.969,0,0,1-.235-.243.456.456,0,0,1-.036-.058.112.112,0,0,0-.013-.025.183.183,0,0,1-.013-.033c-.01-.023-.018-.046-.025-.068a.46.46,0,0,1-.018-.086.494.494,0,0,1-.008-.089v-2.78l1.331-3.964h2Z" transform="translate(-34.23 -99.098)" fill="#404145"/>
  </g>
</svg>
