<svg xmlns="http://www.w3.org/2000/svg" width="18.971" height="17.082" viewBox="0 0 18.971 17.082">
  <g id="Group_3594" data-name="Group 3594" transform="translate(-26 -597.48)">
    <path id="Path_1034" data-name="Path 1034" d="M221.842,113.2h7.093a.336.336,0,0,0,.336-.336v-.606a.336.336,0,0,0-.336-.336h-7.093a.336.336,0,0,0-.336.336v.606A.336.336,0,0,0,221.842,113.2Z" transform="translate(-187.299 485.762)" fill="#404145"/>
    <path id="Path_1035" data-name="Path 1035" d="M221.842,193.96h7.093a.336.336,0,0,0,.336-.336v-.606a.336.336,0,0,0-.336-.336h-7.093a.336.336,0,0,0-.336.336v.606A.336.336,0,0,0,221.842,193.96Z" transform="translate(-187.299 410.992)" fill="#404145"/>
    <path id="Path_1036" data-name="Path 1036" d="M4.135,160.414v-5.068H.6a.6.6,0,0,0-.6.6v8.082a.6.6,0,0,0,.6.6H2.271v2.993l2.69-2.993h6.532a.6.6,0,0,0,.6-.6V162.17h-6.2A1.759,1.759,0,0,1,4.135,160.414Z" transform="translate(26 446.945)" fill="#404145"/>
    <path id="Path_1037" data-name="Path 1037" d="M153.688,25.476h-12.4a.684.684,0,0,0-.681.681v9.2a.685.685,0,0,0,.681.682h7.433l3.062,3.406V36.037h1.9a.685.685,0,0,0,.682-.682v-9.2A.685.685,0,0,0,153.688,25.476ZM153.3,34.97h-2.584v1.689l-1.2-1.335-.318-.354h-7.523V26.544H153.3Z" transform="translate(-109.398 572.004)" fill="#404145"/>
  </g>
</svg>
