<svg xmlns="http://www.w3.org/2000/svg" width="16.785" height="10.494" viewBox="0 0 16.785 10.494">
  <g id="Group_3595" data-name="Group 3595" transform="translate(17395.422 23062.063)">
    <path id="Path_1054" data-name="Path 1054" d="M15.954,100.725l.831-.039V98.077a2.145,2.145,0,0,0-2.142-2.142H2.142A2.145,2.145,0,0,0,0,98.077v2.544l.748.107a.458.458,0,0,1,0,.907L0,101.742v2.545a2.145,2.145,0,0,0,2.142,2.142h12.5a2.145,2.145,0,0,0,2.142-2.142v-2.609l-.831-.039a.458.458,0,0,1,0-.915ZM15.7,102.7v1.588a1.06,1.06,0,0,1-1.059,1.059H2.142a1.06,1.06,0,0,1-1.059-1.059V102.67a1.541,1.541,0,0,0,0-2.977V98.077a1.06,1.06,0,0,1,1.059-1.059h12.5A1.06,1.06,0,0,1,15.7,98.077v1.588a1.541,1.541,0,0,0,0,3.034Z" transform="translate(-17395.422 -23157.998)" fill="#404145"/>
    <path id="Path_1055" data-name="Path 1055" d="M122.421,330.245h-.264v1.14h.7v-1.14h-.437Z" transform="translate(-17512.57 -23384.627)" fill="#404145"/>
    <path id="Path_1056" data-name="Path 1056" d="M122.421,269.158h-.264v1.14h.7v-1.14h-.437Z" transform="translate(-17512.57 -23325.543)" fill="#404145"/>
    <path id="Path_1057" data-name="Path 1057" d="M122.421,208.064h-.264v1.14h.7v-1.14h-.437Z" transform="translate(-17512.57 -23266.451)" fill="#404145"/>
    <path id="Path_1058" data-name="Path 1058" d="M122.421,146.985h-.264v1.14h.7v-1.14h-.437Z" transform="translate(-17512.57 -23207.375)" fill="#404145"/>
  </g>
</svg>
