<svg xmlns="http://www.w3.org/2000/svg" width="20.656" height="20.656" viewBox="0 0 20.656 20.656">
  <path id="Path_1066" data-name="Path 1066" d="M20.266,12.4l-1.574-1.243a1.041,1.041,0,0,1-.39-.821v-.01a1.041,1.041,0,0,1,.39-.823l1.574-1.243a1.026,1.026,0,0,0,.312-1.2l-.691-1.669a1.026,1.026,0,0,0-1.068-.627L16.827,5a1.041,1.041,0,0,1-.858-.306l-.007-.007a1.041,1.041,0,0,1-.3-.856l.234-1.991A1.026,1.026,0,0,0,15.265.77L13.6.079a1.026,1.026,0,0,0-1.2.312L11.155,1.965a1.041,1.041,0,0,1-.821.39h-.01a1.041,1.041,0,0,1-.823-.39L8.259.391A1.026,1.026,0,0,0,7.06.079L5.392.77a1.026,1.026,0,0,0-.627,1.068L5,3.83a1.041,1.041,0,0,1-.306.858l-.007.007a1.041,1.041,0,0,1-.856.3L1.838,4.765A1.026,1.026,0,0,0,.77,5.392L.079,7.06a1.026,1.026,0,0,0,.312,1.2L1.965,9.5a1.041,1.041,0,0,1,.39.821v.01a1.041,1.041,0,0,1-.39.823L.391,12.4a1.026,1.026,0,0,0-.312,1.2L.77,15.265a1.026,1.026,0,0,0,1.068.627l1.992-.234a1.041,1.041,0,0,1,.858.306l.007.007a1.041,1.041,0,0,1,.3.856l-.234,1.991a1.026,1.026,0,0,0,.627,1.068l1.669.691a1.026,1.026,0,0,0,1.2-.312L9.5,18.692a1.041,1.041,0,0,1,.821-.39h.01a1.041,1.041,0,0,1,.823.39L12.4,20.266a1.026,1.026,0,0,0,1.2.312l1.669-.691a1.026,1.026,0,0,0,.627-1.068l-.234-1.992a1.041,1.041,0,0,1,.306-.858l.007-.007a1.041,1.041,0,0,1,.856-.3l1.991.234a1.026,1.026,0,0,0,1.068-.627l.691-1.669A1.026,1.026,0,0,0,20.266,12.4Zm-8.917.9a3.137,3.137,0,1,1,1.7-4.1A3.137,3.137,0,0,1,11.349,13.3Z" transform="translate(-0.001 -0.001)" fill="#404145"/>
</svg>
